<svg width="56" height="980" viewBox="0 0 56 980" fill="none" xmlns="http://www.w3.org/2000/svg">
<rect width="56" height="56" rx="14" fill="#615EF0"/>
<path d="M33.586 39.316C33.558 39.316 33.516 39.309 33.46 39.295C33.404 39.281 33.292 39.239 33.124 39.169C32.97 39.113 32.718 39.015 32.368 38.875C32.018 38.735 31.528 38.539 30.898 38.287C30.282 38.035 29.484 37.713 28.504 37.321C27.524 36.943 26.32 36.474 24.892 35.914C23.66 35.424 22.715 34.591 22.057 33.415C21.399 32.225 21.07 30.72 21.07 28.9C21.07 26.478 21.651 24.623 22.813 23.335C23.989 22.033 25.655 21.382 27.811 21.382C29.981 21.382 31.64 22.033 32.788 23.335C33.95 24.623 34.531 26.478 34.531 28.9C34.531 30.552 34.244 31.945 33.67 33.079C33.11 34.213 32.298 35.053 31.234 35.599V35.683L34.447 36.838C34.643 36.908 34.741 37.02 34.741 37.174C34.741 37.258 34.713 37.412 34.657 37.636C34.601 37.874 34.517 38.119 34.405 38.371C34.307 38.623 34.188 38.84 34.048 39.022C33.908 39.218 33.754 39.316 33.586 39.316ZM27.811 33.751C28.931 33.751 29.778 33.338 30.352 32.512C30.926 31.672 31.213 30.468 31.213 28.9C31.213 27.36 30.926 26.184 30.352 25.372C29.778 24.56 28.931 24.154 27.811 24.154C26.691 24.154 25.837 24.56 25.249 25.372C24.675 26.184 24.388 27.36 24.388 28.9C24.388 30.468 24.675 31.672 25.249 32.512C25.837 33.338 26.691 33.751 27.811 33.751Z" fill="white"/>
<path d="M41.2188 99.4375L28.5156 88.1875C28.3281 88.0938 28.1406 88.0469 28 88.0469C27.8125 88.0469 27.625 88.0938 27.4844 88.1875L14.7344 99.4375C14.5469 99.625 14.5 99.8125 14.5 100C14.5 100.422 14.8281 100.75 15.25 100.75C15.3906 100.75 15.5781 100.703 15.7188 100.562L17.5 99.0156V108.25C17.5 110.312 19.1406 111.953 21.25 111.953H34.7031C36.7656 111.953 38.4531 110.266 38.4531 108.25V99.0156L40.2344 100.562C40.375 100.703 40.5625 100.75 40.7031 100.75C41.0781 100.75 41.4531 100.422 41.4531 100.047C41.4531 99.8125 41.4062 99.625 41.2188 99.4375ZM30.25 110.5H25.75V103H30.25V110.5ZM36.9531 97.75V108.25C36.9531 109.516 35.9219 110.5 34.7031 110.5H31.7031V102.766C31.75 102.062 31.1875 101.5 30.4844 101.5H25.5156C24.8125 101.5 24.25 102.062 24.25 102.766V110.5H21.25C19.9844 110.5 19 109.516 19 108.25V97.75C19 97.75 18.9531 97.75 18.9531 97.7031L28 89.7812L37 97.7031C37 97.75 36.9531 97.75 36.9531 97.75Z" fill="black"/>
<path d="M32.5 156V147C32.5 145.359 31.1406 144 29.5 144H16C14.3125 144 13 145.359 13 147V156C13 157.688 14.3125 159 16 159L17.5 159.047V161.438C17.5 161.812 17.7344 162 18.0625 162C18.1562 162 18.25 162 18.3906 161.906L23.5 159H29.5C31.1406 159 32.5 157.688 32.5 156ZM22.8906 156.75L19.75 158.578V156.75H16C15.5781 156.75 15.25 156.422 15.25 156V147C15.25 146.625 15.5781 146.25 16 146.25H29.5C29.875 146.25 30.25 146.625 30.25 147V156C30.25 156.422 29.875 156.75 29.5 156.75H22.8906ZM40 150H34V156C34 158.484 31.9375 160.5 29.5 160.5H25V162C25 163.688 26.3125 165 27.9531 165H33.8125L37.7031 167.906C38.0312 168.141 38.5 167.953 38.5 167.578V165H40C41.6406 165 43 163.688 43 162.047V153C43 151.359 41.6406 150 40 150Z" fill="#615EF0"/>
<path d="M40.7031 213.5L31.4219 213.547C30.7188 213.547 30.3906 214.344 30.8594 214.812L37 220.953C37.2344 221.141 37.6562 221.281 38.0312 220.953C39.8594 219.266 41.0781 216.969 41.4531 214.344C41.5469 213.922 41.1719 213.5 40.7031 213.5ZM37.5156 219.359L33.2031 215H39.8125C39.4375 216.641 38.6406 218.094 37.5156 219.359ZM26.5 213.5V202.391C26.5 201.969 26.125 201.641 25.75 201.641C25.7031 201.641 25.6562 201.641 25.6562 201.641C20.0781 202.438 15.7656 207.266 16.0469 213.172C16.1875 219.125 21.2969 224 27.25 224C27.2969 224 27.2969 224 27.3438 224C29.7344 224 31.8906 223.25 33.7188 221.938C34.0938 221.703 34.0938 221.141 33.7656 220.812L26.5 213.5ZM27.3438 222.5C21.9062 222.5 17.6406 218.047 17.5 213.125C17.3125 208.438 20.5 204.359 25 203.281V213.5C25 213.922 25.1406 214.297 25.4219 214.578L32.0781 221.234C30.625 222.078 29.0312 222.5 27.3438 222.5ZM39.9531 210.5C39.5312 204.875 35.0781 200.469 29.4531 200C28.9844 200 28.7031 200.422 28.7031 200.797V210.5C28.7031 210.922 29.0312 211.25 29.4531 211.25H39.1562C39.625 211.25 40 210.922 39.9531 210.5ZM30.2031 209.75V201.594C34.4219 202.25 37.75 205.578 38.4062 209.75H30.2031Z" fill="black"/>
<path d="M39.7656 278.734L33.1094 272.125C34.6094 270.391 35.4531 268.188 35.4531 265.75C35.4531 260.406 31.0469 256 25.7031 256C20.3125 256 16 260.406 16 265.75C16 271.141 20.3594 275.5 25.7031 275.5C28.0938 275.5 30.2969 274.656 32.0312 273.156L38.6406 279.812C38.8281 279.953 39.0156 280 39.25 280C39.4375 280 39.625 279.953 39.7656 279.812C40.0469 279.531 40.0469 279.016 39.7656 278.734ZM25.75 274C21.1562 274 17.5 270.297 17.5 265.75C17.5 261.203 21.1562 257.5 25.75 257.5C30.2969 257.5 34 261.203 34 265.75C34 270.344 30.2969 274 25.75 274Z" fill="black"/>
<path d="M35.5 315H34V312.75C34 312.375 33.625 312 33.25 312C32.8281 312 32.5 312.375 32.5 312.75V315H23.5V312.75C23.5 312.375 23.125 312 22.75 312C22.3281 312 22 312.375 22 312.75V315H20.5C18.8125 315 17.5 316.359 17.5 318V333C17.5 334.688 18.8125 336 20.5 336H35.5C37.1406 336 38.5 334.688 38.5 333V318C38.5 316.359 37.1406 315 35.5 315ZM37 333C37 333.844 36.2969 334.5 35.5 334.5H20.5C19.6562 334.5 19 333.844 19 333V321H37V333ZM37 319.5H19V318C19 317.203 19.6562 316.5 20.5 316.5H35.5C36.2969 316.5 37 317.203 37 318V319.5ZM22 330H26.5C27.2969 330 28 329.344 28 328.5V324C28 323.203 27.2969 322.5 26.5 322.5H22C21.1562 322.5 20.5 323.203 20.5 324V328.5C20.5 329.344 21.1562 330 22 330ZM22 324H26.5V328.5H22V324Z" fill="black"/>
<path d="M27.9531 392C25.3281 392 24.3906 391.484 24.3906 390.359V388.484C23.6406 388.203 22.9844 387.781 22.375 387.359L20.7812 388.25C20.5469 388.391 20.3125 388.438 20.0781 388.438C18.3438 388.438 16.4688 384.125 16.4688 383.375C16.4688 382.859 16.75 382.344 17.2188 382.109L18.8125 381.172C18.8125 380.797 18.7656 380.375 18.7656 380C18.7656 379.578 18.8125 379.203 18.8594 378.828L17.2656 377.938C16.7969 377.703 16.5156 377.188 16.5156 376.672C16.5156 376.109 18.2969 371.562 20.0781 371.562C20.3594 371.562 20.5938 371.656 20.8281 371.797L22.4219 372.688C23.0312 372.266 23.6875 371.844 24.3906 371.562V369.688C24.3906 368.234 26.0781 368 28 368C29.8281 368 31.5156 368.234 31.5156 369.688V371.562C32.2188 371.844 32.875 372.219 33.4844 372.688L35.0781 371.797C35.3125 371.656 35.5469 371.609 35.8281 371.609C37.5156 371.609 39.3906 375.922 39.3906 376.672C39.3906 377.188 39.1094 377.703 38.6406 377.938L37.0469 378.875C37.0938 379.25 37.1406 379.625 37.1406 380C37.1406 380.375 37.0938 380.797 37.0469 381.172L38.6406 382.109C39.1094 382.344 39.3906 382.859 39.3906 383.375C39.3906 383.938 37.6094 388.438 35.8281 388.438C35.5469 388.438 35.3125 388.391 35.0781 388.25L33.4844 387.359C32.875 387.781 32.2188 388.203 31.5156 388.484V390.359C31.5625 391.484 30.625 392 27.9531 392ZM22.5625 385.531C24.25 386.984 25.0469 387.125 25.8906 387.453V390.359C26.5938 390.453 27.25 390.5 27.9531 390.5C28.6562 390.5 29.3594 390.453 30.0625 390.312L30.0156 387.453C30.8125 387.172 31.7031 386.938 33.3438 385.531L35.875 386.984C36.7656 385.953 37.4688 384.734 37.8906 383.375L35.4531 381.969C35.5469 381.266 35.6406 380.75 35.6406 380.094C35.6406 379.625 35.5938 379.016 35.4531 378.078L37.9375 376.672C37.4688 375.359 36.7656 374.141 35.8281 373.062L33.3438 374.516C31.7031 373.062 30.9062 372.922 30.0156 372.594V369.688C29.3594 369.594 28.7031 369.547 28 369.547C27.2969 369.547 26.5938 369.594 25.8438 369.734L25.8906 372.594C25.1406 372.875 24.25 373.062 22.5625 374.516L20.0781 373.062C19.1875 374.141 18.4844 375.359 18.0156 376.719L20.5 378.078C20.4062 378.781 20.3125 379.297 20.3125 379.906C20.3125 380.422 20.3594 381.031 20.5 381.922L18.0156 383.375C18.4844 384.641 19.1875 385.859 20.125 386.938L22.5625 385.531ZM28 384.5C25.5156 384.5 23.5 382.484 23.5 380C23.5 377.516 25.5156 375.5 28 375.5C30.4375 375.5 32.5 377.516 32.5 380C32.5 382.484 30.4375 384.5 28 384.5ZM28 377C26.3125 377 25 378.312 25 380C25 381.641 26.3125 383 28 383C29.6406 383 31 381.641 31 380C31 378.312 29.6406 377 28 377Z" fill="black"/>
<path d="M32.9575 436V427C32.9575 425.359 31.5985 424 29.9575 424H16.4575C14.7695 424 13.4575 425.359 13.4575 427V436C13.4575 437.688 14.7695 439 16.4575 439L17.9575 439.047V441.438C17.9575 441.812 18.1915 442 18.5195 442C18.6135 442 18.7075 442 18.8475 441.906L23.9575 439H29.9575C31.5985 439 32.9575 437.688 32.9575 436Z" stroke="black" stroke-width="1.5" stroke-miterlimit="10"/>
<path d="M24.5425 439.074V440.574C24.5425 442.262 25.8545 443.574 27.4955 443.574H33.3545L37.2455 446.48C37.5735 446.714 38.0425 446.527 38.0425 446.152V443.574H39.5425C41.1835 443.574 42.5425 442.262 42.5425 440.621V431.574C42.5425 429.933 41.1835 428.574 39.5425 428.574H33.5425" stroke="black" stroke-width="1.5" stroke-miterlimit="10"/>
<path d="M17.947 478.583H37.784" stroke="black" stroke-width="1.5" stroke-miterlimit="10" stroke-linecap="round" stroke-linejoin="round"/>
<path d="M17.947 486.292H37.784" stroke="black" stroke-width="1.5" stroke-miterlimit="10" stroke-linecap="round" stroke-linejoin="round"/>
<path d="M18.216 494H38.053" stroke="black" stroke-width="1.5" stroke-miterlimit="10" stroke-linecap="round" stroke-linejoin="round"/>
</svg>
