<svg width="32" height="25" viewBox="0 0 32 25" fill="none" xmlns="http://www.w3.org/2000/svg">
<path d="M20.9575 13V4C20.9575 2.359 19.5985 1 17.9575 1H4.45752C2.76952 1 1.45752 2.359 1.45752 4V13C1.45752 14.688 2.76952 16 4.45752 16L5.95752 16.047V18.438C5.95752 18.812 6.19152 19 6.51952 19C6.61352 19 6.70752 19 6.84752 18.906L11.9575 16H17.9575C19.5985 16 20.9575 14.688 20.9575 13Z" stroke="black" stroke-width="1.5" stroke-miterlimit="10"/>
<path d="M12.5425 16.074V17.574C12.5425 19.262 13.8545 20.574 15.4955 20.574H21.3545L25.2455 23.48C25.5735 23.714 26.0425 23.527 26.0425 23.152V20.574H27.5425C29.1835 20.574 30.5425 19.262 30.5425 17.621V8.574C30.5425 6.933 29.1835 5.574 27.5425 5.574H21.5425" stroke="black" stroke-width="1.5" stroke-miterlimit="10"/>
</svg>
